<svg version="1.2" xmlns="http://www.w3.org/2000/svg" viewBox="0 0 319 255" width="319" height="255"><style>.a{fill:#385e9d}.b{fill:#ffb81c}</style><path fill-rule="evenodd" class="a" d="m99.4 6.9l6.9-6.9 91 91c4.8 4.8 8.5 10.4 11.1 16.6 2.6 6.2 3.9 12.9 3.9 19.6 0 6.8-1.3 13.4-3.9 19.6-2.6 6.2-6.3 11.9-11.1 16.7l-91 91-91-91c-4.7-4.8-8.5-10.5-11-16.7-2.6-6.2-3.9-12.8-3.9-19.6 0-6.7 1.3-13.4 3.9-19.6 2.5-6.2 6.3-11.8 11-16.6z"/><path fill-rule="evenodd" class="b" d="m205.5 6.9l6.8-6.9 91 91c4.8 4.8 8.5 10.4 11.1 16.6 2.6 6.2 3.9 12.9 3.9 19.6 0 6.8-1.3 13.4-3.9 19.6-2.6 6.2-6.3 11.9-11.1 16.7l-91 91-91-91c-4.7-4.8-8.5-10.5-11-16.7-2.6-6.2-3.9-12.8-3.9-19.6 0-6.7 1.3-13.4 3.9-19.6 2.5-6.2 6.3-11.8 11-16.6z"/></svg>